HIERARCHY
ROOT Hips
{
	OFFSET -9.901980 91.463200 41.001900
	CHANNELS 6 Xposition Yposition Zposition Zrotation Yrotation Xrotation 
	JOINT Spine
	{
		OFFSET 0.000000 4.732610 7.098920
		CHANNELS 3 Zrotation Yrotation Xrotation
		JOINT Spine1
		{
			OFFSET 0.000000 0.000000 9.465210
			CHANNELS 3 Zrotation Yrotation Xrotation
			JOINT Spine2
			{
				OFFSET 0.000000 0.000000 9.465220
				CHANNELS 3 Zrotation Yrotation Xrotation
				JOINT Spine3
				{
					OFFSET 0.000000 0.000000 9.465210
					CHANNELS 3 Zrotation Yrotation Xrotation
					JOINT Neck
					{
						OFFSET 0.000010 -3.549470 24.846200
						CHANNELS 3 Zrotation Yrotation Xrotation
						JOINT Head
						{
							OFFSET 0.000000 -0.000025 13.014700
							CHANNELS 3 Zrotation Yrotation Xrotation
							End Site
							{
								OFFSET 0.000000 0.000000 0.000000
							}
						}
					}
					JOINT RightShoulder
					{
						OFFSET -3.199490 -5.332480 17.277200
						CHANNELS 3 Zrotation Yrotation Xrotation
						JOINT RightArm
						{
							OFFSET 15.890800 0.000000 0.000000
							CHANNELS 3 Zrotation Yrotation Xrotation
							JOINT RightForeArm
							{
								OFFSET 29.543600 0.000000 0.000048
								CHANNELS 3 Zrotation Yrotation Xrotation
								JOINT RightHand
								{
									OFFSET 23.265200 0.000000 0.000000
									CHANNELS 3 Zrotation Yrotation Xrotation
									JOINT RightHandEnd
									{
										OFFSET 6.961150 0.000000 0.000000
										CHANNELS 3 Zrotation Yrotation Xrotation
										End Site
										{
											OFFSET 0.000000 0.000000 0.000000
										}
									}
									JOINT RightHandThumb1
									{
										OFFSET 2.784460 -4.640770 1.856310
										CHANNELS 3 Zrotation Yrotation Xrotation
										JOINT RightHandThumb2
										{
											OFFSET 6.961160 0.000000 0.000013
											CHANNELS 3 Zrotation Yrotation Xrotation
											End Site
											{
												OFFSET 0.000000 0.000000 0.000000
											}
										}
									}
								}
							}
						}
					}
					JOINT LeftShoulder
					{
						OFFSET 3.199490 -5.332490 17.277200
						CHANNELS 3 Zrotation Yrotation Xrotation
						JOINT LeftArm
						{
							OFFSET 15.890800 0.000000 0.000000
							CHANNELS 3 Zrotation Yrotation Xrotation
							JOINT LeftForeArm
							{
								OFFSET 29.543700 0.000000 0.000066
								CHANNELS 3 Zrotation Yrotation Xrotation
								JOINT LeftHand
								{
									OFFSET 23.265200 0.000000 0.000000
									CHANNELS 3 Zrotation Yrotation Xrotation
									JOINT LeftHandEnd
									{
										OFFSET 6.961150 0.000000 0.000000
										CHANNELS 3 Zrotation Yrotation Xrotation
										End Site
										{
											OFFSET 0.000000 0.000000 0.000000
										}
									}
									JOINT LeftHandThumb1
									{
										OFFSET 2.784470 -4.640770 -1.856300
										CHANNELS 3 Zrotation Yrotation Xrotation
										JOINT LeftHandThumb2
										{
											OFFSET 6.961150 0.000000 0.000000
											CHANNELS 3 Zrotation Yrotation Xrotation
											End Site
											{
												OFFSET 0.000000 0.000000 0.000000
											}
										}
									}
								}
							}
						}
					}
				}
			}
		}
	}
	JOINT RightUpLeg
	{
		OFFSET -9.491840 0.000000 -2.772890
		CHANNELS 3 Zrotation Yrotation Xrotation
		JOINT RightLeg
		{
			OFFSET 41.211800 0.000674 0.000098
			CHANNELS 3 Zrotation Yrotation Xrotation
			JOINT RightFoot
			{
				OFFSET 45.609100 0.000000 0.000000
				CHANNELS 3 Zrotation Yrotation Xrotation
				JOINT RightToeBase
				{
					OFFSET 17.096900 0.000000 0.000000
					CHANNELS 3 Zrotation Yrotation Xrotation
					End Site
					{
						OFFSET 0.000000 0.000000 0.000000
					}
				}
			}
		}
	}
	JOINT LeftUpLeg
	{
		OFFSET 9.491830 0.000000 -2.772890
		CHANNELS 3 Zrotation Yrotation Xrotation
		JOINT LeftLeg
		{
			OFFSET 41.211800 -0.000111 0.000000
			CHANNELS 3 Zrotation Yrotation Xrotation
			JOINT LeftFoot
			{
				OFFSET 45.609200 0.000000 0.000000
				CHANNELS 3 Zrotation Yrotation Xrotation
				JOINT LeftToeBase
				{
					OFFSET 17.096900 0.000000 0.000000
					CHANNELS 3 Zrotation Yrotation Xrotation
					End Site
					{
						OFFSET 0.000000 0.000000 0.000000
					}
				}
			}
		}
	}
}
MOTION
Frames: 8
Frame Time: 0.033333
-0.487799 93.751701 1.890530 -177.780294 4.956893 103.791297 -0.680612 0.456108 5.954158 0.353870 0.543324 9.572735 -2.140102 0.613453 8.093552 2.412779 -0.130728 -1.765434 -2.882615 -3.043280 1.456924 -4.977117 -1.437699 -21.671390 -179.255558 -1.715939 168.684701 36.904102 -72.838685 -96.271059 -105.853709 -1.995915 3.528445 -1.752894 1.271105 10.855019 0.093661 -0.024259 -89.968543 -14.582260 0.829555 170.489263 -0.249361 0.255053 -0.189150 -4.058084 -6.441116 17.046197 36.610743 72.153606 105.705715 -103.808929 1.005915 0.182767 -7.482961 3.882308 13.902716 0.099032 -0.233434 90.113974 -16.100798 -1.154193 169.857740 0.239238 0.378408 0.337334 -88.861771 43.796667 -81.217044 55.798320 -4.579090 4.325625 -84.785754 7.151999 3.475587 -21.252316 -0.106729 0.193351 -78.113253 51.625913 -99.929230 73.004992 7.751898 -11.017823 -89.036567 -21.842956 -2.449795 -21.971938 -0.392047 -0.516367 
-0.640717 93.153297 2.063580 -177.884878 5.510619 103.651562 -0.727856 0.270056 6.021850 0.342559 0.326704 9.230086 -1.241973 -0.124174 8.419361 1.550869 0.117058 -1.888593 -2.882994 -2.623269 1.494403 -5.070441 -1.141086 -21.669616 -178.356798 -1.173887 168.772259 33.148288 -72.621303 -92.997832 -104.948833 -2.643141 3.963877 -1.093767 2.500940 11.278178 0.454659 0.021940 -90.267886 -15.127370 1.920002 170.480829 -0.042123 -0.018495 -0.101727 -3.960749 -6.959965 17.712214 39.806133 72.668457 108.841414 -103.737857 0.523151 0.830983 -7.788270 2.418291 12.429319 -0.109926 -0.426184 89.776149 -15.925816 -1.133981 169.874331 0.134211 0.504217 0.359844 -87.818402 44.734780 -80.762736 55.093006 -4.127653 4.366202 -83.973247 6.363253 3.948215 -21.886112 -0.035779 -0.162566 -77.997861 50.895037 -99.547822 70.334539 7.455144 -10.879938 -86.450889 -21.968416 -3.708246 -22.401220 0.010319 -0.257217 
-0.921969 92.044502 2.275750 -177.975318 6.861295 103.294383 -0.613840 0.162796 6.203576 0.822624 0.211158 9.440313 -1.002340 -0.301191 8.661786 0.854947 -0.405056 -1.690796 -2.264296 -2.741746 0.362543 -4.800442 -1.463200 -21.285441 -178.139821 -1.797686 168.731939 30.483682 -72.935190 -90.651072 -104.131766 -2.372863 4.312352 -0.168343 2.237412 10.778686 -0.006128 0.026426 -90.185992 -14.608116 1.515265 170.327198 -0.143710 -0.115291 0.025770 -3.828665 -6.888570 18.446233 39.821023 72.393904 108.891114 -101.485194 0.161910 1.019844 -8.564668 2.726406 12.087159 0.183426 -0.066713 89.766715 -14.773014 0.381793 169.369508 -0.381363 -0.262310 0.543941 -87.279743 44.233812 -81.555529 57.452940 -3.078867 3.212735 -83.532263 4.838671 3.709057 -22.071884 -0.121867 -0.004302 -78.200591 49.554568 -99.643069 69.323654 6.984481 -10.420077 -86.912703 -22.232538 -4.010306 -22.409282 -0.023459 -0.280021 
-1.330420 90.328102 2.574820 -177.758659 8.385493 102.572414 -0.931856 -0.214940 7.483181 0.686857 0.616319 9.550109 -1.756900 -0.152079 9.158000 0.697273 -0.933340 -1.006739 -1.825849 -1.815541 -0.605856 -4.811286 -1.601882 -22.140160 -178.055470 -2.015363 168.581425 30.603817 -73.428448 -90.461328 -104.495180 -1.625513 3.881551 -0.459636 3.121383 10.256905 -0.025262 -0.149400 -90.214872 -15.393167 1.002415 170.322499 -0.158359 -0.035512 0.549400 -3.823445 -6.808947 19.051892 36.752385 71.051512 104.701434 -96.874508 -0.203089 1.549623 -6.407800 4.104360 12.943622 -0.173082 0.088986 90.030655 -14.637390 0.843705 169.499808 -0.201470 -0.076581 0.294437 -86.713126 42.703504 -83.482231 61.462802 -1.458580 1.696646 -84.287453 3.251646 3.959349 -21.617790 -0.246198 -0.203891 -77.534127 48.705118 -99.356017 69.761829 6.759606 -10.063763 -89.195036 -22.980229 -3.448100 -21.849770 0.097380 -0.197161 
-1.651570 88.115799 2.870960 -177.939153 9.060338 102.374216 -1.087865 -0.024909 8.694924 0.733088 0.880730 9.886132 -2.060337 -0.255436 9.909279 -0.004748 -1.354876 -1.084378 -1.929994 -1.771087 -1.350632 -5.012340 -1.809916 -23.251635 -178.863917 -1.633777 168.334052 27.083227 -72.855668 -86.531265 -104.849427 -0.728235 3.445910 -0.872157 2.049776 6.949503 0.083371 -0.341605 -90.074041 -14.906078 -0.639874 170.140792 -0.227256 0.331625 0.227048 -4.445996 -6.892639 19.166391 29.100578 68.798009 96.429012 -91.040149 0.183837 0.650491 -4.982549 4.586804 13.649111 0.208155 0.374699 90.017056 -13.712242 1.301650 169.644782 -0.030398 -0.364962 0.337646 -86.618065 40.155473 -85.675534 67.694055 0.145151 0.667139 -89.036496 2.274150 3.586823 -20.393394 -0.379840 0.225186 -76.259901 47.435185 -98.963434 71.165941 5.700469 -8.828541 -92.257085 -22.753509 -2.166897 -20.218493 -0.071015 -0.401985 
-1.892320 85.953499 3.041740 -178.151408 9.087906 101.760768 -1.297167 -0.002313 9.122783 0.508564 0.572742 10.509034 -2.987937 0.172396 11.463918 0.249429 -1.823552 -0.915952 -1.924720 -1.634148 -0.996346 -4.875897 -1.893527 -24.283429 -179.162548 -0.949364 168.453601 20.272045 -71.251752 -79.323076 -103.435856 -0.260100 2.380087 -1.616761 -1.068129 2.989106 0.151710 -0.304098 -89.496295 -14.035723 -1.813553 170.407970 -0.158821 0.489438 0.587641 -4.923262 -6.751248 17.939634 22.948594 66.650356 89.542140 -86.122599 0.052416 0.915445 -3.060752 3.190820 13.040127 -0.013851 0.120930 90.384229 -13.940292 0.158957 170.150442 0.052900 -0.008767 0.180659 -87.160079 38.852518 -87.455896 73.999487 1.251962 -1.093041 -94.560938 2.361675 3.006358 -19.895980 -0.299286 -0.002924 -75.273898 46.283142 -97.465702 74.187533 4.781047 -7.208966 -94.723966 -22.291396 -1.840300 -19.249844 -0.613386 -0.629162 
-2.140100 84.119301 3.084270 -178.637383 8.925853 100.219879 -0.823462 -0.421076 9.424628 -0.283324 0.379992 11.461537 -3.326072 0.713900 12.730439 -0.223241 -1.670960 -0.185113 -1.565283 -0.703816 0.075254 -5.092057 -1.808593 -25.158430 -178.678192 -0.373296 169.004694 14.249394 -69.604331 -72.842615 -100.483676 -0.794809 1.751505 -1.064746 -1.465110 -0.056684 0.487139 -0.153781 -89.925288 -13.647702 -1.962190 170.338257 -0.146223 0.006179 0.283633 -5.741512 -6.154305 16.784250 16.265059 64.506979 81.935016 -81.923395 -0.087600 0.643188 -0.841420 2.173156 12.063616 -0.187552 -0.071864 90.242693 -15.304988 -0.189327 170.090964 0.345476 -0.037668 0.207029 -87.887545 39.005141 -88.989802 79.228073 2.474153 -1.484438 -101.317963 3.347461 2.980044 -19.348403 -0.344871 0.170140 -75.220336 46.042702 -95.591662 76.090639 3.221687 -5.659941 -96.494635 -21.788558 -1.518830 -18.759127 -0.429415 -0.864418 
-2.278370 82.853302 2.921070 -179.401376 8.432395 99.063154 -0.597602 -0.552683 9.245357 -0.497817 0.352795 11.549041 -3.336478 1.182446 13.968153 -0.714874 -1.375008 0.627780 -1.347453 -0.889604 1.273083 -4.539697 -1.991020 -25.492217 -178.495170 -0.494476 169.339267 9.297493 -68.045095 -67.232895 -96.562506 -1.738298 1.381470 0.495403 -1.242153 -4.858021 0.638997 0.161335 -89.382211 -13.012100 0.135672 170.218328 -0.532483 0.198878 0.085354 -6.675989 -6.321922 15.235463 9.807095 63.654553 74.940008 -77.744775 0.044372 0.168146 1.634274 -0.566603 10.905276 -0.209592 -0.027752 90.455086 -15.383645 -1.133556 170.314483 0.495517 -0.023299 0.282266 -88.046174 39.770650 -89.793581 81.942761 3.122472 -0.764143 -104.832581 5.584827 1.876417 -19.027729 -0.036568 0.374906 -75.606676 46.422709 -94.288157 75.848431 2.055351 -4.530643 -96.976742 -20.288426 -1.774420 -18.575865 -0.363281 -0.663383 
